<svg xmlns="http://www.w3.org/2000/svg" xmlns:xlink="http://www.w3.org/1999/xlink" viewBox="0 0 500 500" width="500" height="500" preserveAspectRatio="xMidYMid meet" style="width: 100%; height: 100%; transform: translate3d(0px, 0px, 0px); content-visibility: visible;"><defs><clipPath id="__lottie_element_2"><rect width="500" height="500" x="0" y="0"></rect></clipPath></defs><g clip-path="url(#__lottie_element_2)"><g transform="matrix(1,0,0,1,0,0)" opacity="1" style="display: block;"><rect width="500" height="500" fill="#ffffff"></rect></g><g transform="matrix(-1.0606601238250732,-1.0606601238250732,1.0606601238250732,-1.0606601238250732,320.0035705566406,335.9134826660156)" opacity="1" style="display: none;"><g opacity="1" transform="matrix(1,0,0,1,0,0)"><path stroke-linecap="butt" stroke-linejoin="miter" fill-opacity="0" stroke-miterlimit="10" stroke="rgb(0,0,0)" stroke-opacity="1" stroke-width="15" d=" M7.5,7.5 C7.5,7.5 139.5,7.5 139.5,7.5"></path></g></g><g transform="matrix(1.5,0,0,1.5,139.75,184.75)" opacity="1" style="display: block;"><g opacity="1" transform="matrix(1,0,0,1,0,0)"><path stroke-linecap="butt" stroke-linejoin="miter" fill-opacity="0" stroke-miterlimit="10" stroke="rgb(0,0,0)" stroke-opacity="1" stroke-width="15" d=" M7.5,7.5 C7.5,7.5 139.5,7.5 139.5,7.5"></path></g></g><g transform="matrix(1.5,0,0,1.5,139.75,238.75)" opacity="1" style="display: block;"><g opacity="1" transform="matrix(1,0,0,1,0,0)"><path stroke-linecap="butt" stroke-linejoin="miter" fill-opacity="0" stroke-miterlimit="10" stroke="rgb(0,0,0)" stroke-opacity="1" stroke-width="15" d=" M7.5,7.5 C7.5,7.5 139.5,7.5 139.5,7.5"></path></g></g><g transform="matrix(-1.5,0,0,-1.5,360.25,261.25)" opacity="1" style="display: block;"><g opacity="1" transform="matrix(1,0,0,1,0,0)"><path stroke-linecap="butt" stroke-linejoin="miter" fill-opacity="0" stroke-miterlimit="10" stroke="rgb(0,0,0)" stroke-opacity="1" stroke-width="15" d=" M7.5,7.5 C7.5,7.5 139.5,7.5 139.5,7.5"></path></g></g><g transform="matrix(-1.0606601238250732,-1.0606601238250732,1.0606601238250732,-1.0606601238250732,320.0035705566406,335.9134826660156)" opacity="1" style="display: none;"><g opacity="1" transform="matrix(1,0,0,1,0,0)"><path stroke-linecap="butt" stroke-linejoin="miter" fill-opacity="0" stroke-miterlimit="10" stroke="rgb(0,0,0)" stroke-opacity="1" stroke-width="15" d=" M7.5,7.5 C7.5,7.5 139.5,7.5 139.5,7.5"></path></g></g><g transform="matrix(1.5,0,0,1.5,139.75,292.75)" opacity="1" style="display: block;"><g opacity="1" transform="matrix(1,0,0,1,0,0)"><path stroke-linecap="butt" stroke-linejoin="miter" fill-opacity="0" stroke-miterlimit="10" stroke="rgb(0,0,0)" stroke-opacity="1" stroke-width="15" d=" M7.5,7.5 C7.5,7.5 139.5,7.5 139.5,7.5"></path></g></g></g></svg>